<?xml version="1.0" encoding="UTF-8" standalone="no"?>
<!DOCTYPE svg PUBLIC "-//W3C//DTD SVG 1.1//EN"
 "http://www.w3.org/Graphics/SVG/1.1/DTD/svg11.dtd">
<!-- Generated by graphviz version 2.46.1 (20210213.1702)
 -->
<!-- Title: mygraph Pages: 1 -->
<svg width="1432pt" height="1196pt"
 viewBox="0.00 0.00 1431.50 1196.00" xmlns="http://www.w3.org/2000/svg" xmlns:xlink="http://www.w3.org/1999/xlink">
<g id="graph0" class="graph" transform="scale(1 1) rotate(0) translate(4 1192)">
<title>mygraph</title>
<polygon fill="white" stroke="transparent" points="-4,4 -4,-1192 1427.5,-1192 1427.5,4 -4,4"/>
<!-- Conflicts database -->
<g id="node1" class="node">
<title>Conflicts database</title>
<path fill="#f7f7f7" stroke="black" d="M824,-1184.73C824,-1186.53 795.31,-1188 760,-1188 724.69,-1188 696,-1186.53 696,-1184.73 696,-1184.73 696,-1155.27 696,-1155.27 696,-1153.47 724.69,-1152 760,-1152 795.31,-1152 824,-1153.47 824,-1155.27 824,-1155.27 824,-1184.73 824,-1184.73"/>
<path fill="none" stroke="black" d="M824,-1184.73C824,-1182.92 795.31,-1181.45 760,-1181.45 724.69,-1181.45 696,-1182.92 696,-1184.73"/>
<text text-anchor="middle" x="760" y="-1166.3" font-family="Helvetica,sans-Serif" font-size="14.00">Conflicts database</text>
</g>
<!-- extract_initial_dataset.py -->
<g id="node2" class="node">
<title>extract_initial_dataset.py</title>
<polygon fill="#fcfab8" stroke="black" points="702.5,-1116 537.5,-1116 537.5,-1080 702.5,-1080 702.5,-1116"/>
<text text-anchor="middle" x="620" y="-1094.3" font-family="Helvetica,sans-Serif" font-size="14.00">extract_initial_dataset.py</text>
</g>
<!-- Conflicts database&#45;&gt;extract_initial_dataset.py -->
<g id="edge1" class="edge">
<title>Conflicts database&#45;&gt;extract_initial_dataset.py</title>
<path fill="none" stroke="black" d="M725.75,-1151.88C706.94,-1142.47 683.42,-1130.71 663.33,-1120.67"/>
<polygon fill="black" stroke="black" points="664.89,-1117.53 654.38,-1116.19 661.76,-1123.79 664.89,-1117.53"/>
</g>
<!-- concatenation_relabel.py -->
<g id="node4" class="node">
<title>concatenation_relabel.py</title>
<polygon fill="#fcfab8" stroke="black" points="955.5,-972 788.5,-972 788.5,-936 955.5,-936 955.5,-972"/>
<text text-anchor="middle" x="872" y="-950.3" font-family="Helvetica,sans-Serif" font-size="14.00">concatenation_relabel.py</text>
</g>
<!-- Conflicts database&#45;&gt;concatenation_relabel.py -->
<g id="edge3" class="edge">
<title>Conflicts database&#45;&gt;concatenation_relabel.py</title>
<path fill="none" stroke="black" d="M768.98,-1151.85C788.51,-1114.52 835,-1025.69 858.26,-981.26"/>
<polygon fill="black" stroke="black" points="861.45,-982.72 862.98,-972.23 855.24,-979.47 861.45,-982.72"/>
</g>
<!-- collect_attributes_db.py -->
<g id="node10" class="node">
<title>collect_attributes_db.py</title>
<polygon fill="#fcfab8" stroke="black" points="854,-828 696,-828 696,-792 854,-792 854,-828"/>
<text text-anchor="middle" x="775" y="-806.3" font-family="Helvetica,sans-Serif" font-size="14.00">collect_attributes_db.py</text>
</g>
<!-- Conflicts database&#45;&gt;collect_attributes_db.py -->
<g id="edge11" class="edge">
<title>Conflicts database&#45;&gt;collect_attributes_db.py</title>
<path fill="none" stroke="black" d="M760,-1151.95C760,-1125.29 760,-1072.11 760,-1027 760,-1027 760,-1027 760,-953 760,-912.99 765.96,-867 770.37,-838.46"/>
<polygon fill="black" stroke="black" points="773.85,-838.85 771.96,-828.43 766.94,-837.75 773.85,-838.85"/>
</g>
<!-- INITIAL_DATASET.csv -->
<g id="node3" class="node">
<title>INITIAL_DATASET.csv</title>
<polygon fill="#f7f7f7" stroke="black" points="682,-1044 528,-1044 528,-1008 682,-1008 682,-1044"/>
<text text-anchor="middle" x="605" y="-1022.3" font-family="Helvetica,sans-Serif" font-size="14.00">INITIAL_DATASET.csv</text>
</g>
<!-- extract_initial_dataset.py&#45;&gt;INITIAL_DATASET.csv -->
<g id="edge2" class="edge">
<title>extract_initial_dataset.py&#45;&gt;INITIAL_DATASET.csv</title>
<path fill="none" stroke="black" d="M616.29,-1079.7C614.64,-1071.98 612.65,-1062.71 610.81,-1054.11"/>
<polygon fill="black" stroke="black" points="614.18,-1053.15 608.67,-1044.1 607.34,-1054.62 614.18,-1053.15"/>
</g>
<!-- INITIAL_DATASET.csv&#45;&gt;concatenation_relabel.py -->
<g id="edge4" class="edge">
<title>INITIAL_DATASET.csv&#45;&gt;concatenation_relabel.py</title>
<path fill="none" stroke="black" d="M669.97,-1007.97C708.33,-997.91 757.05,-985.14 797.03,-974.65"/>
<polygon fill="black" stroke="black" points="797.95,-978.03 806.73,-972.11 796.17,-971.26 797.95,-978.03"/>
</g>
<!-- clone_projects.py -->
<g id="node6" class="node">
<title>clone_projects.py</title>
<polygon fill="#fcfab8" stroke="black" points="574,-972 452,-972 452,-936 574,-936 574,-972"/>
<text text-anchor="middle" x="513" y="-950.3" font-family="Helvetica,sans-Serif" font-size="14.00">clone_projects.py</text>
</g>
<!-- INITIAL_DATASET.csv&#45;&gt;clone_projects.py -->
<g id="edge6" class="edge">
<title>INITIAL_DATASET.csv&#45;&gt;clone_projects.py</title>
<path fill="none" stroke="black" d="M582.26,-1007.7C570.56,-998.8 556.14,-987.82 543.49,-978.2"/>
<polygon fill="black" stroke="black" points="545.56,-975.37 535.48,-972.1 541.32,-980.94 545.56,-975.37"/>
</g>
<!-- collect_attributes.py -->
<g id="node8" class="node">
<title>collect_attributes.py</title>
<polygon fill="#fcfab8" stroke="black" points="288,-828 152,-828 152,-792 288,-792 288,-828"/>
<text text-anchor="middle" x="220" y="-806.3" font-family="Helvetica,sans-Serif" font-size="14.00">collect_attributes.py</text>
</g>
<!-- INITIAL_DATASET.csv&#45;&gt;collect_attributes.py -->
<g id="edge8" class="edge">
<title>INITIAL_DATASET.csv&#45;&gt;collect_attributes.py</title>
<path fill="none" stroke="black" d="M527.81,-1011.17C492.16,-1002.88 450.06,-990.3 415,-972 344.99,-935.45 277.08,-870.77 242.89,-835.54"/>
<polygon fill="black" stroke="black" points="245.18,-832.86 235.73,-828.07 240.13,-837.71 245.18,-832.86"/>
</g>
<!-- INITIAL_DATASET.csv&#45;&gt;collect_attributes_db.py -->
<g id="edge12" class="edge">
<title>INITIAL_DATASET.csv&#45;&gt;collect_attributes_db.py</title>
<path fill="none" stroke="black" d="M618.62,-1007.85C648.53,-970.21 720.03,-880.2 755.02,-836.15"/>
<polygon fill="black" stroke="black" points="757.83,-838.24 761.31,-828.23 752.35,-833.89 757.83,-838.24"/>
</g>
<!-- collect_chunk_authors.py -->
<g id="node12" class="node">
<title>collect_chunk_authors.py</title>
<polygon fill="#fcfab8" stroke="black" points="475.5,-828 306.5,-828 306.5,-792 475.5,-792 475.5,-828"/>
<text text-anchor="middle" x="391" y="-806.3" font-family="Helvetica,sans-Serif" font-size="14.00">collect_chunk_authors.py</text>
</g>
<!-- INITIAL_DATASET.csv&#45;&gt;collect_chunk_authors.py -->
<g id="edge15" class="edge">
<title>INITIAL_DATASET.csv&#45;&gt;collect_chunk_authors.py</title>
<path fill="none" stroke="black" d="M527.79,-1015.04C497.91,-1007.61 465.56,-994.64 443,-972 406.74,-935.6 395.75,-873.79 392.43,-838.27"/>
<polygon fill="black" stroke="black" points="395.91,-837.85 391.63,-828.16 388.93,-838.4 395.91,-837.85"/>
</g>
<!-- execute_mac_tool.py -->
<g id="node16" class="node">
<title>execute_mac_tool.py</title>
<polygon fill="#fcfab8" stroke="black" points="677.5,-828 532.5,-828 532.5,-792 677.5,-792 677.5,-828"/>
<text text-anchor="middle" x="605" y="-806.3" font-family="Helvetica,sans-Serif" font-size="14.00">execute_mac_tool.py</text>
</g>
<!-- INITIAL_DATASET.csv&#45;&gt;execute_mac_tool.py -->
<g id="edge20" class="edge">
<title>INITIAL_DATASET.csv&#45;&gt;execute_mac_tool.py</title>
<path fill="none" stroke="black" d="M605,-1007.85C605,-970.83 605,-883.18 605,-838.39"/>
<polygon fill="black" stroke="black" points="608.5,-838.23 605,-828.23 601.5,-838.23 608.5,-838.23"/>
</g>
<!-- LABELLED_DATASET.csv -->
<g id="node5" class="node">
<title>LABELLED_DATASET.csv</title>
<polygon fill="#f7f7f7" stroke="black" points="978,-540 802,-540 802,-504 978,-504 978,-540"/>
<text text-anchor="middle" x="890" y="-518.3" font-family="Helvetica,sans-Serif" font-size="14.00">LABELLED_DATASET.csv</text>
</g>
<!-- concatenation_relabel.py&#45;&gt;LABELLED_DATASET.csv -->
<g id="edge5" class="edge">
<title>concatenation_relabel.py&#45;&gt;LABELLED_DATASET.csv</title>
<path fill="none" stroke="black" d="M900.02,-935.94C934.64,-912.47 989,-866.74 989,-811 989,-811 989,-811 989,-665 989,-621.99 976.32,-610.77 951,-576 943.11,-565.17 932.63,-555.05 922.57,-546.61"/>
<polygon fill="black" stroke="black" points="924.64,-543.78 914.66,-540.22 920.24,-549.23 924.64,-543.78"/>
</g>
<!-- select_projects.py -->
<g id="node24" class="node">
<title>select_projects.py</title>
<polygon fill="#fcfab8" stroke="black" points="741.5,-396 616.5,-396 616.5,-360 741.5,-360 741.5,-396"/>
<text text-anchor="middle" x="679" y="-374.3" font-family="Helvetica,sans-Serif" font-size="14.00">select_projects.py</text>
</g>
<!-- LABELLED_DATASET.csv&#45;&gt;select_projects.py -->
<g id="edge33" class="edge">
<title>LABELLED_DATASET.csv&#45;&gt;select_projects.py</title>
<path fill="none" stroke="black" d="M801.88,-514.63C766.92,-507.79 728.96,-494.29 703,-468 686.97,-451.76 681.35,-426 679.52,-406.36"/>
<polygon fill="black" stroke="black" points="683,-405.93 678.85,-396.18 676.01,-406.39 683,-405.93"/>
</g>
<!-- Repos folder -->
<g id="node7" class="node">
<title>Repos folder</title>
<polygon fill="#f7f7f7" stroke="black" points="553.5,-900 550.5,-904 529.5,-904 526.5,-900 460.5,-900 460.5,-864 553.5,-864 553.5,-900"/>
<text text-anchor="middle" x="507" y="-878.3" font-family="Helvetica,sans-Serif" font-size="14.00">Repos folder</text>
</g>
<!-- clone_projects.py&#45;&gt;Repos folder -->
<g id="edge7" class="edge">
<title>clone_projects.py&#45;&gt;Repos folder</title>
<path fill="none" stroke="black" d="M511.52,-935.7C510.86,-927.98 510.06,-918.71 509.32,-910.11"/>
<polygon fill="black" stroke="black" points="512.81,-909.77 508.47,-900.1 505.83,-910.37 512.81,-909.77"/>
</g>
<!-- Repos folder&#45;&gt;collect_attributes.py -->
<g id="edge9" class="edge">
<title>Repos folder&#45;&gt;collect_attributes.py</title>
<path fill="none" stroke="black" d="M460.25,-869.6C416.38,-858.9 349.93,-842.69 298.02,-830.03"/>
<polygon fill="black" stroke="black" points="298.72,-826.6 288.18,-827.63 297.06,-833.4 298.72,-826.6"/>
</g>
<!-- Repos folder&#45;&gt;collect_attributes_db.py -->
<g id="edge13" class="edge">
<title>Repos folder&#45;&gt;collect_attributes_db.py</title>
<path fill="none" stroke="black" d="M553.68,-868.81C594,-858.27 653.01,-842.86 699.96,-830.6"/>
<polygon fill="black" stroke="black" points="700.99,-833.95 709.78,-828.03 699.22,-827.18 700.99,-833.95"/>
</g>
<!-- Repos folder&#45;&gt;collect_chunk_authors.py -->
<g id="edge16" class="edge">
<title>Repos folder&#45;&gt;collect_chunk_authors.py</title>
<path fill="none" stroke="black" d="M478.62,-863.88C463.46,-854.72 444.59,-843.34 428.26,-833.48"/>
<polygon fill="black" stroke="black" points="429.86,-830.36 419.49,-828.19 426.24,-836.35 429.86,-830.36"/>
</g>
<!-- Repos folder&#45;&gt;execute_mac_tool.py -->
<g id="edge21" class="edge">
<title>Repos folder&#45;&gt;execute_mac_tool.py</title>
<path fill="none" stroke="black" d="M530.97,-863.88C543.55,-854.89 559.13,-843.76 572.75,-834.03"/>
<polygon fill="black" stroke="black" points="574.83,-836.85 580.93,-828.19 570.76,-831.15 574.83,-836.85"/>
</g>
<!-- collect_merge_type.py -->
<g id="node19" class="node">
<title>collect_merge_type.py</title>
<polygon fill="#fcfab8" stroke="black" points="690,-684 538,-684 538,-648 690,-648 690,-684"/>
<text text-anchor="middle" x="614" y="-662.3" font-family="Helvetica,sans-Serif" font-size="14.00">collect_merge_type.py</text>
</g>
<!-- Repos folder&#45;&gt;collect_merge_type.py -->
<g id="edge24" class="edge">
<title>Repos folder&#45;&gt;collect_merge_type.py</title>
<path fill="none" stroke="black" d="M503.96,-863.86C499.36,-832.54 493.99,-765.13 523,-720 531.35,-707 544.1,-696.81 557.44,-688.99"/>
<polygon fill="black" stroke="black" points="559.15,-692.05 566.25,-684.19 555.79,-685.9 559.15,-692.05"/>
</g>
<!-- collected_attributes1.csv -->
<g id="node9" class="node">
<title>collected_attributes1.csv</title>
<polygon fill="#f7f7f7" stroke="black" points="264,-684 100,-684 100,-648 264,-648 264,-684"/>
<text text-anchor="middle" x="182" y="-662.3" font-family="Helvetica,sans-Serif" font-size="14.00">collected_attributes1.csv</text>
</g>
<!-- collect_attributes.py&#45;&gt;collected_attributes1.csv -->
<g id="edge10" class="edge">
<title>collect_attributes.py&#45;&gt;collected_attributes1.csv</title>
<path fill="none" stroke="black" d="M215.42,-791.87C208.91,-767.56 196.94,-722.82 189.23,-694.01"/>
<polygon fill="black" stroke="black" points="192.57,-692.94 186.6,-684.19 185.8,-694.75 192.57,-692.94"/>
</g>
<!-- assemble_dataset.py -->
<g id="node21" class="node">
<title>assemble_dataset.py</title>
<polygon fill="#fcfab8" stroke="black" points="685.5,-540 540.5,-540 540.5,-504 685.5,-504 685.5,-540"/>
<text text-anchor="middle" x="613" y="-518.3" font-family="Helvetica,sans-Serif" font-size="14.00">assemble_dataset.py</text>
</g>
<!-- collected_attributes1.csv&#45;&gt;assemble_dataset.py -->
<g id="edge27" class="edge">
<title>collected_attributes1.csv&#45;&gt;assemble_dataset.py</title>
<path fill="none" stroke="black" d="M205.03,-647.96C233.58,-627.68 284.44,-594.27 333,-576 397,-551.92 473.5,-538.4 530.35,-531.05"/>
<polygon fill="black" stroke="black" points="530.89,-534.51 540.37,-529.79 530.02,-527.56 530.89,-534.51"/>
</g>
<!-- collected_attributes2.csv -->
<g id="node11" class="node">
<title>collected_attributes2.csv</title>
<polygon fill="#f7f7f7" stroke="black" points="942,-612 778,-612 778,-576 942,-576 942,-612"/>
<text text-anchor="middle" x="860" y="-590.3" font-family="Helvetica,sans-Serif" font-size="14.00">collected_attributes2.csv</text>
</g>
<!-- collect_attributes_db.py&#45;&gt;collected_attributes2.csv -->
<g id="edge14" class="edge">
<title>collect_attributes_db.py&#45;&gt;collected_attributes2.csv</title>
<path fill="none" stroke="black" d="M854.4,-801.45C883.68,-794.37 914.05,-781.01 932,-756 963.41,-712.25 917.66,-652.61 885.96,-619.57"/>
<polygon fill="black" stroke="black" points="888.17,-616.83 878.65,-612.16 883.18,-621.74 888.17,-616.83"/>
</g>
<!-- collected_attributes2.csv&#45;&gt;assemble_dataset.py -->
<g id="edge28" class="edge">
<title>collected_attributes2.csv&#45;&gt;assemble_dataset.py</title>
<path fill="none" stroke="black" d="M799.89,-575.97C764.63,-565.97 719.91,-553.3 683.06,-542.85"/>
<polygon fill="black" stroke="black" points="683.95,-539.47 673.38,-540.11 682.04,-546.2 683.95,-539.47"/>
</g>
<!-- chunk_authors.csv -->
<g id="node13" class="node">
<title>chunk_authors.csv</title>
<polygon fill="#f7f7f7" stroke="black" points="455.5,-756 326.5,-756 326.5,-720 455.5,-720 455.5,-756"/>
<text text-anchor="middle" x="391" y="-734.3" font-family="Helvetica,sans-Serif" font-size="14.00">chunk_authors.csv</text>
</g>
<!-- collect_chunk_authors.py&#45;&gt;chunk_authors.csv -->
<g id="edge17" class="edge">
<title>collect_chunk_authors.py&#45;&gt;chunk_authors.csv</title>
<path fill="none" stroke="black" d="M391,-791.7C391,-783.98 391,-774.71 391,-766.11"/>
<polygon fill="black" stroke="black" points="394.5,-766.1 391,-756.1 387.5,-766.1 394.5,-766.1"/>
</g>
<!-- extract_author_self_conflict.py -->
<g id="node14" class="node">
<title>extract_author_self_conflict.py</title>
<polygon fill="#fcfab8" stroke="black" points="519.5,-684 320.5,-684 320.5,-648 519.5,-648 519.5,-684"/>
<text text-anchor="middle" x="420" y="-662.3" font-family="Helvetica,sans-Serif" font-size="14.00">extract_author_self_conflict.py</text>
</g>
<!-- chunk_authors.csv&#45;&gt;extract_author_self_conflict.py -->
<g id="edge18" class="edge">
<title>chunk_authors.csv&#45;&gt;extract_author_self_conflict.py</title>
<path fill="none" stroke="black" d="M398.17,-719.7C401.43,-711.81 405.37,-702.3 409,-693.55"/>
<polygon fill="black" stroke="black" points="412.32,-694.68 412.91,-684.1 405.85,-692 412.32,-694.68"/>
</g>
<!-- process_projects_dataset.py -->
<g id="node30" class="node">
<title>process_projects_dataset.py</title>
<polygon fill="#fcfab8" stroke="black" points="439,-108 251,-108 251,-72 439,-72 439,-108"/>
<text text-anchor="middle" x="345" y="-86.3" font-family="Helvetica,sans-Serif" font-size="14.00">process_projects_dataset.py</text>
</g>
<!-- chunk_authors.csv&#45;&gt;process_projects_dataset.py -->
<g id="edge41" class="edge">
<title>chunk_authors.csv&#45;&gt;process_projects_dataset.py</title>
<path fill="none" stroke="black" d="M353.1,-719.96C337.83,-711.28 321.41,-699.28 311,-684 288.23,-650.57 292,-635.45 292,-595 292,-595 292,-595 292,-233 292,-190.21 313.39,-144.48 328.99,-116.82"/>
<polygon fill="black" stroke="black" points="332.02,-118.56 334.02,-108.16 325.97,-115.05 332.02,-118.56"/>
</g>
<!-- authors_self_conflicts.csv -->
<g id="node15" class="node">
<title>authors_self_conflicts.csv</title>
<polygon fill="#f7f7f7" stroke="black" points="512,-612 342,-612 342,-576 512,-576 512,-612"/>
<text text-anchor="middle" x="427" y="-590.3" font-family="Helvetica,sans-Serif" font-size="14.00">authors_self_conflicts.csv</text>
</g>
<!-- extract_author_self_conflict.py&#45;&gt;authors_self_conflicts.csv -->
<g id="edge19" class="edge">
<title>extract_author_self_conflict.py&#45;&gt;authors_self_conflicts.csv</title>
<path fill="none" stroke="black" d="M421.73,-647.7C422.5,-639.98 423.43,-630.71 424.29,-622.11"/>
<polygon fill="black" stroke="black" points="427.78,-622.4 425.29,-612.1 420.81,-621.71 427.78,-622.4"/>
</g>
<!-- authors_self_conflicts.csv&#45;&gt;assemble_dataset.py -->
<g id="edge29" class="edge">
<title>authors_self_conflicts.csv&#45;&gt;assemble_dataset.py</title>
<path fill="none" stroke="black" d="M472.5,-575.88C498.38,-566.14 530.97,-553.87 558.24,-543.61"/>
<polygon fill="black" stroke="black" points="559.52,-546.87 567.65,-540.07 557.06,-540.31 559.52,-546.87"/>
</g>
<!-- macTool_output.csv -->
<g id="node17" class="node">
<title>macTool_output.csv</title>
<polygon fill="#f7f7f7" stroke="black" points="669.5,-756 532.5,-756 532.5,-720 669.5,-720 669.5,-756"/>
<text text-anchor="middle" x="601" y="-734.3" font-family="Helvetica,sans-Serif" font-size="14.00">macTool_output.csv</text>
</g>
<!-- execute_mac_tool.py&#45;&gt;macTool_output.csv -->
<g id="edge22" class="edge">
<title>execute_mac_tool.py&#45;&gt;macTool_output.csv</title>
<path fill="none" stroke="black" d="M604.01,-791.7C603.57,-783.98 603.04,-774.71 602.55,-766.11"/>
<polygon fill="black" stroke="black" points="606.04,-765.89 601.98,-756.1 599.05,-766.29 606.04,-765.89"/>
</g>
<!-- Two csv files for each analyzed repo -->
<g id="node18" class="node">
<title>Two csv files for each analyzed repo</title>
<polygon fill="#f7f7f7" stroke="black" points="922.5,-756 919.5,-760 898.5,-760 895.5,-756 687.5,-756 687.5,-720 922.5,-720 922.5,-756"/>
<text text-anchor="middle" x="805" y="-734.3" font-family="Helvetica,sans-Serif" font-size="14.00">Two csv files for each analyzed repo</text>
</g>
<!-- execute_mac_tool.py&#45;&gt;Two csv files for each analyzed repo -->
<g id="edge23" class="edge">
<title>execute_mac_tool.py&#45;&gt;Two csv files for each analyzed repo</title>
<path fill="none" stroke="black" d="M653.67,-791.97C681.61,-782.19 716.9,-769.84 746.36,-759.52"/>
<polygon fill="black" stroke="black" points="747.83,-762.72 756.11,-756.11 745.52,-756.11 747.83,-762.72"/>
</g>
<!-- macTool_output.csv&#45;&gt;collect_merge_type.py -->
<g id="edge25" class="edge">
<title>macTool_output.csv&#45;&gt;collect_merge_type.py</title>
<path fill="none" stroke="black" d="M604.21,-719.7C605.65,-711.98 607.37,-702.71 608.96,-694.11"/>
<polygon fill="black" stroke="black" points="612.44,-694.58 610.82,-684.1 605.56,-693.3 612.44,-694.58"/>
</g>
<!-- macTool_output.csv&#45;&gt;assemble_dataset.py -->
<g id="edge30" class="edge">
<title>macTool_output.csv&#45;&gt;assemble_dataset.py</title>
<path fill="none" stroke="black" d="M655.82,-719.96C672.66,-711.87 689.29,-700.28 699,-684 706.36,-671.66 711.16,-599.33 698,-576 690.78,-563.2 679.07,-553.08 666.61,-545.26"/>
<polygon fill="black" stroke="black" points="668.32,-542.2 657.92,-540.21 664.8,-548.25 668.32,-542.2"/>
</g>
<!-- merge_types_data.csv -->
<g id="node20" class="node">
<title>merge_types_data.csv</title>
<polygon fill="#f7f7f7" stroke="black" points="689.5,-612 536.5,-612 536.5,-576 689.5,-576 689.5,-612"/>
<text text-anchor="middle" x="613" y="-590.3" font-family="Helvetica,sans-Serif" font-size="14.00">merge_types_data.csv</text>
</g>
<!-- collect_merge_type.py&#45;&gt;merge_types_data.csv -->
<g id="edge26" class="edge">
<title>collect_merge_type.py&#45;&gt;merge_types_data.csv</title>
<path fill="none" stroke="black" d="M613.75,-647.7C613.64,-639.98 613.51,-630.71 613.39,-622.11"/>
<polygon fill="black" stroke="black" points="616.89,-622.05 613.24,-612.1 609.89,-622.15 616.89,-622.05"/>
</g>
<!-- merge_types_data.csv&#45;&gt;assemble_dataset.py -->
<g id="edge31" class="edge">
<title>merge_types_data.csv&#45;&gt;assemble_dataset.py</title>
<path fill="none" stroke="black" d="M613,-575.7C613,-567.98 613,-558.71 613,-550.11"/>
<polygon fill="black" stroke="black" points="616.5,-550.1 613,-540.1 609.5,-550.1 616.5,-550.1"/>
</g>
<!-- dataset.csv -->
<g id="node22" class="node">
<title>dataset.csv</title>
<polygon fill="#f7f7f7" stroke="black" points="655.5,-468 570.5,-468 570.5,-432 655.5,-432 655.5,-468"/>
<text text-anchor="middle" x="613" y="-446.3" font-family="Helvetica,sans-Serif" font-size="14.00">dataset.csv</text>
</g>
<!-- assemble_dataset.py&#45;&gt;dataset.csv -->
<g id="edge32" class="edge">
<title>assemble_dataset.py&#45;&gt;dataset.csv</title>
<path fill="none" stroke="black" d="M613,-503.7C613,-495.98 613,-486.71 613,-478.11"/>
<polygon fill="black" stroke="black" points="616.5,-478.1 613,-468.1 609.5,-478.1 616.5,-478.1"/>
</g>
<!-- dataset.csv&#45;&gt;select_projects.py -->
<g id="edge34" class="edge">
<title>dataset.csv&#45;&gt;select_projects.py</title>
<path fill="none" stroke="black" d="M629.31,-431.7C637.31,-423.22 647.07,-412.86 655.82,-403.58"/>
<polygon fill="black" stroke="black" points="658.56,-405.78 662.87,-396.1 653.47,-400.98 658.56,-405.78"/>
</g>
<!-- number_conflicting_chunks.csv -->
<g id="node23" class="node">
<title>number_conflicting_chunks.csv</title>
<polygon fill="#f7f7f7" stroke="black" points="917.5,-468 712.5,-468 712.5,-432 917.5,-432 917.5,-468"/>
<text text-anchor="middle" x="815" y="-446.3" font-family="Helvetica,sans-Serif" font-size="14.00">number_conflicting_chunks.csv</text>
</g>
<!-- number_conflicting_chunks.csv&#45;&gt;select_projects.py -->
<g id="edge35" class="edge">
<title>number_conflicting_chunks.csv&#45;&gt;select_projects.py</title>
<path fill="none" stroke="black" d="M781.73,-431.88C763.54,-422.51 740.81,-410.81 721.36,-400.8"/>
<polygon fill="black" stroke="black" points="722.89,-397.65 712.4,-396.19 719.69,-403.88 722.89,-397.65"/>
</g>
<!-- github_api_data_preprocess.py -->
<g id="node36" class="node">
<title>github_api_data_preprocess.py</title>
<polygon fill="#fcfab8" stroke="black" points="1159.5,-396 954.5,-396 954.5,-360 1159.5,-360 1159.5,-396"/>
<text text-anchor="middle" x="1057" y="-374.3" font-family="Helvetica,sans-Serif" font-size="14.00">github_api_data_preprocess.py</text>
</g>
<!-- number_conflicting_chunks.csv&#45;&gt;github_api_data_preprocess.py -->
<g id="edge46" class="edge">
<title>number_conflicting_chunks.csv&#45;&gt;github_api_data_preprocess.py</title>
<path fill="none" stroke="black" d="M873.89,-431.97C908.29,-422.01 951.88,-409.41 987.9,-398.99"/>
<polygon fill="black" stroke="black" points="989.21,-402.25 997.85,-396.11 987.27,-395.53 989.21,-402.25"/>
</g>
<!-- selected_dataset.csv -->
<g id="node25" class="node">
<title>selected_dataset.csv</title>
<polygon fill="#f7f7f7" stroke="black" points="512.5,-324 369.5,-324 369.5,-288 512.5,-288 512.5,-324"/>
<text text-anchor="middle" x="441" y="-302.3" font-family="Helvetica,sans-Serif" font-size="14.00">selected_dataset.csv</text>
</g>
<!-- select_projects.py&#45;&gt;selected_dataset.csv -->
<g id="edge36" class="edge">
<title>select_projects.py&#45;&gt;selected_dataset.csv</title>
<path fill="none" stroke="black" d="M621.08,-359.97C587.25,-350.01 544.38,-337.41 508.96,-326.99"/>
<polygon fill="black" stroke="black" points="509.76,-323.57 499.18,-324.11 507.78,-330.29 509.76,-323.57"/>
</g>
<!-- SELECTED_LABELLED_DATASET.csv -->
<g id="node26" class="node">
<title>SELECTED_LABELLED_DATASET.csv</title>
<polygon fill="#f7f7f7" stroke="black" points="802.5,-324 547.5,-324 547.5,-288 802.5,-288 802.5,-324"/>
<text text-anchor="middle" x="675" y="-302.3" font-family="Helvetica,sans-Serif" font-size="14.00">SELECTED_LABELLED_DATASET.csv</text>
</g>
<!-- select_projects.py&#45;&gt;SELECTED_LABELLED_DATASET.csv -->
<g id="edge37" class="edge">
<title>select_projects.py&#45;&gt;SELECTED_LABELLED_DATASET.csv</title>
<path fill="none" stroke="black" d="M678.01,-359.7C677.57,-351.98 677.04,-342.71 676.55,-334.11"/>
<polygon fill="black" stroke="black" points="680.04,-333.89 675.98,-324.1 673.05,-334.29 680.04,-333.89"/>
</g>
<!-- projects_intersection.csv -->
<g id="node27" class="node">
<title>projects_intersection.csv</title>
<polygon fill="#f7f7f7" stroke="black" points="985,-324 821,-324 821,-288 985,-288 985,-324"/>
<text text-anchor="middle" x="903" y="-302.3" font-family="Helvetica,sans-Serif" font-size="14.00">projects_intersection.csv</text>
</g>
<!-- select_projects.py&#45;&gt;projects_intersection.csv -->
<g id="edge38" class="edge">
<title>select_projects.py&#45;&gt;projects_intersection.csv</title>
<path fill="none" stroke="black" d="M733.51,-359.97C765.22,-350.06 805.36,-337.51 838.61,-327.12"/>
<polygon fill="black" stroke="black" points="839.74,-330.43 848.25,-324.11 837.66,-323.75 839.74,-330.43"/>
</g>
<!-- transform_boolean_attributes.py -->
<g id="node28" class="node">
<title>transform_boolean_attributes.py</title>
<polygon fill="#fcfab8" stroke="black" points="542.5,-252 331.5,-252 331.5,-216 542.5,-216 542.5,-252"/>
<text text-anchor="middle" x="437" y="-230.3" font-family="Helvetica,sans-Serif" font-size="14.00">transform_boolean_attributes.py</text>
</g>
<!-- selected_dataset.csv&#45;&gt;transform_boolean_attributes.py -->
<g id="edge39" class="edge">
<title>selected_dataset.csv&#45;&gt;transform_boolean_attributes.py</title>
<path fill="none" stroke="black" d="M440.01,-287.7C439.57,-279.98 439.04,-270.71 438.55,-262.11"/>
<polygon fill="black" stroke="black" points="442.04,-261.89 437.98,-252.1 435.05,-262.29 442.04,-261.89"/>
</g>
<!-- selected_dataset_2.csv -->
<g id="node29" class="node">
<title>selected_dataset_2.csv</title>
<polygon fill="#f7f7f7" stroke="black" points="511,-180 353,-180 353,-144 511,-144 511,-180"/>
<text text-anchor="middle" x="432" y="-158.3" font-family="Helvetica,sans-Serif" font-size="14.00">selected_dataset_2.csv</text>
</g>
<!-- transform_boolean_attributes.py&#45;&gt;selected_dataset_2.csv -->
<g id="edge40" class="edge">
<title>transform_boolean_attributes.py&#45;&gt;selected_dataset_2.csv</title>
<path fill="none" stroke="black" d="M435.76,-215.7C435.21,-207.98 434.55,-198.71 433.94,-190.11"/>
<polygon fill="black" stroke="black" points="437.43,-189.83 433.22,-180.1 430.44,-190.33 437.43,-189.83"/>
</g>
<!-- selected_dataset_2.csv&#45;&gt;process_projects_dataset.py -->
<g id="edge42" class="edge">
<title>selected_dataset_2.csv&#45;&gt;process_projects_dataset.py</title>
<path fill="none" stroke="black" d="M410.49,-143.7C399.54,-134.88 386.05,-124.03 374.18,-114.47"/>
<polygon fill="black" stroke="black" points="376.24,-111.65 366.26,-108.1 371.86,-117.1 376.24,-111.65"/>
</g>
<!-- Two csv files (training/test) for each repo -->
<g id="node31" class="node">
<title>Two csv files (training/test) for each repo</title>
<polygon fill="#f7f7f7" stroke="black" points="260,-36 257,-40 236,-40 233,-36 0,-36 0,0 260,0 260,-36"/>
<text text-anchor="middle" x="130" y="-14.3" font-family="Helvetica,sans-Serif" font-size="14.00">Two csv files (training/test) for each repo</text>
</g>
<!-- process_projects_dataset.py&#45;&gt;Two csv files (training/test) for each repo -->
<g id="edge43" class="edge">
<title>process_projects_dataset.py&#45;&gt;Two csv files (training/test) for each repo</title>
<path fill="none" stroke="black" d="M292.68,-71.97C262.38,-62.1 224.05,-49.62 192.21,-39.25"/>
<polygon fill="black" stroke="black" points="193.15,-35.88 182.55,-36.11 190.98,-42.53 193.15,-35.88"/>
</g>
<!-- dataset&#45;training.csv -->
<g id="node32" class="node">
<title>dataset&#45;training.csv</title>
<polygon fill="#f7f7f7" stroke="black" points="412,-36 278,-36 278,0 412,0 412,-36"/>
<text text-anchor="middle" x="345" y="-14.3" font-family="Helvetica,sans-Serif" font-size="14.00">dataset&#45;training.csv</text>
</g>
<!-- process_projects_dataset.py&#45;&gt;dataset&#45;training.csv -->
<g id="edge44" class="edge">
<title>process_projects_dataset.py&#45;&gt;dataset&#45;training.csv</title>
<path fill="none" stroke="black" d="M345,-71.7C345,-63.98 345,-54.71 345,-46.11"/>
<polygon fill="black" stroke="black" points="348.5,-46.1 345,-36.1 341.5,-46.1 348.5,-46.1"/>
</g>
<!-- dataset&#45;test.csv -->
<g id="node33" class="node">
<title>dataset&#45;test.csv</title>
<polygon fill="#f7f7f7" stroke="black" points="541.5,-36 430.5,-36 430.5,0 541.5,0 541.5,-36"/>
<text text-anchor="middle" x="486" y="-14.3" font-family="Helvetica,sans-Serif" font-size="14.00">dataset&#45;test.csv</text>
</g>
<!-- process_projects_dataset.py&#45;&gt;dataset&#45;test.csv -->
<g id="edge45" class="edge">
<title>process_projects_dataset.py&#45;&gt;dataset&#45;test.csv</title>
<path fill="none" stroke="black" d="M379.49,-71.88C398.44,-62.47 422.13,-50.71 442.36,-40.67"/>
<polygon fill="black" stroke="black" points="443.97,-43.77 451.37,-36.19 440.86,-37.5 443.97,-43.77"/>
</g>
<!-- number_chunks__updated_repos.csv -->
<g id="node34" class="node">
<title>number_chunks__updated_repos.csv</title>
<polygon fill="#f7f7f7" stroke="black" points="1178,-468 936,-468 936,-432 1178,-432 1178,-468"/>
<text text-anchor="middle" x="1057" y="-446.3" font-family="Helvetica,sans-Serif" font-size="14.00">number_chunks__updated_repos.csv</text>
</g>
<!-- number_chunks__updated_repos.csv&#45;&gt;github_api_data_preprocess.py -->
<g id="edge47" class="edge">
<title>number_chunks__updated_repos.csv&#45;&gt;github_api_data_preprocess.py</title>
<path fill="none" stroke="black" d="M1057,-431.7C1057,-423.98 1057,-414.71 1057,-406.11"/>
<polygon fill="black" stroke="black" points="1060.5,-406.1 1057,-396.1 1053.5,-406.1 1060.5,-406.1"/>
</g>
<!-- projects_data_from_github_api.csv -->
<g id="node35" class="node">
<title>projects_data_from_github_api.csv</title>
<polygon fill="#f7f7f7" stroke="black" points="1423.5,-468 1196.5,-468 1196.5,-432 1423.5,-432 1423.5,-468"/>
<text text-anchor="middle" x="1310" y="-446.3" font-family="Helvetica,sans-Serif" font-size="14.00">projects_data_from_github_api.csv</text>
</g>
<!-- projects_data_from_github_api.csv&#45;&gt;github_api_data_preprocess.py -->
<g id="edge48" class="edge">
<title>projects_data_from_github_api.csv&#45;&gt;github_api_data_preprocess.py</title>
<path fill="none" stroke="black" d="M1248.43,-431.97C1212.31,-421.97 1166.51,-409.3 1128.76,-398.85"/>
<polygon fill="black" stroke="black" points="1129.41,-395.4 1118.84,-396.11 1127.55,-402.15 1129.41,-395.4"/>
</g>
<!-- api_data.csv -->
<g id="node37" class="node">
<title>api_data.csv</title>
<polygon fill="#f7f7f7" stroke="black" points="1103,-324 1011,-324 1011,-288 1103,-288 1103,-324"/>
<text text-anchor="middle" x="1057" y="-302.3" font-family="Helvetica,sans-Serif" font-size="14.00">api_data.csv</text>
</g>
<!-- github_api_data_preprocess.py&#45;&gt;api_data.csv -->
<g id="edge49" class="edge">
<title>github_api_data_preprocess.py&#45;&gt;api_data.csv</title>
<path fill="none" stroke="black" d="M1057,-359.7C1057,-351.98 1057,-342.71 1057,-334.11"/>
<polygon fill="black" stroke="black" points="1060.5,-334.1 1057,-324.1 1053.5,-334.1 1060.5,-334.1"/>
</g>
</g>
</svg>
